<svg version="1.1" id="Layer_1" xmlns="http://www.w3.org/2000/svg" xmlns:xlink="http://www.w3.org/1999/xlink" x="0px" y="0px"
	 width="100%" viewBox="0 0 1280 1280" enable-background="new 0 0 1280 1280" xml:space="preserve">
<path fill="#ffffff" opacity="1.000000" stroke="none" 
	d="
M513.920105,796.074829 
	C517.971558,804.190918 521.100586,812.960938 526.285339,820.273499 
	C534.564270,831.950134 543.938049,842.896851 553.407471,853.660889 
	C557.319031,858.107300 562.756714,861.187561 567.318665,865.100891 
	C568.537537,866.146545 569.086914,867.972717 569.943665,869.440552 
	C568.322449,869.959839 566.481262,871.258911 565.115417,870.873535 
	C555.292053,868.101807 545.166016,865.881287 535.914062,861.745300 
	C525.587158,857.128845 515.530823,851.443726 506.335999,844.856750 
	C488.391327,832.001343 473.660309,816.026794 461.827606,797.134460 
	C451.973328,781.400940 443.930603,764.908081 437.394226,747.672729 
	C430.715851,730.063110 426.610107,711.646912 423.259003,693.175110 
	C420.933899,680.358765 419.372437,667.239319 419.186920,654.230774 
	C418.655884,616.989746 419.000000,579.736328 419.000000,542.487732 
	C418.365112,542.410034 417.730225,542.332397 417.095337,542.254761 
	C414.068115,552.930420 410.744415,563.533020 408.092224,574.301025 
	C405.088440,586.496765 402.290894,598.772644 400.162781,611.144287 
	C398.751282,619.350037 398.628326,627.781799 398.007812,636.118225 
	C396.971802,650.036987 394.892883,663.991455 395.281769,677.874084 
	C395.761169,694.989502 398.149811,712.065186 400.020782,729.124268 
	C402.072540,747.832153 408.146515,765.546204 415.527344,782.638184 
	C420.427673,793.986084 426.573975,805.038940 435.546753,813.952637 
	C442.132751,820.495178 449.109161,826.643982 455.871002,833.011353 
	C456.676514,833.769958 457.226440,834.799927 458.421478,836.416382 
	C451.135773,837.650269 445.834106,834.659058 440.501678,831.962158 
	C429.975006,826.638123 421.601532,818.440430 414.499451,809.474426 
	C407.398102,800.509460 400.682343,790.953674 396.937347,779.785278 
	C392.927460,767.827026 388.197357,756.089844 384.677399,743.995422 
	C382.565613,736.739502 382.400208,728.939758 380.954834,721.462769 
	C376.969025,700.844116 377.747711,679.991028 378.193329,659.226624 
	C378.458466,646.871216 380.393646,634.523987 382.029175,622.233154 
	C383.738312,609.389465 385.498962,596.515625 388.142914,583.843994 
	C390.663055,571.765808 394.157196,559.875305 397.580658,548.005432 
	C400.948822,536.327271 405.206024,524.889404 408.169281,513.118530 
	C409.351410,508.422668 408.286377,503.104401 407.930328,498.091797 
	C407.443939,491.244904 406.277008,484.429962 406.085907,477.582214 
	C405.769836,466.257416 405.372162,454.873352 406.162231,443.595032 
	C407.105286,430.132172 408.782196,416.672974 411.037231,403.363983 
	C413.048004,391.496796 415.904877,379.734680 419.062561,368.109314 
	C423.522095,351.691284 429.970398,335.974121 438.043579,320.994507 
	C446.608002,305.103363 456.647400,290.220215 469.244415,277.157166 
	C470.860046,275.481720 471.998718,273.233429 472.980225,271.078339 
	C478.054535,259.936646 483.695160,249.224243 490.997253,239.249176 
	C501.038757,225.531906 513.105408,213.969376 526.667053,204.094635 
	C540.276001,194.185455 554.832581,185.635605 571.278809,181.021530 
	C577.790405,179.194672 578.656860,177.814697 579.062073,171.284866 
	C580.415588,149.474304 586.858521,129.815384 601.429199,112.714844 
	C611.733215,100.621696 623.970398,91.677834 637.853149,84.746887 
	C649.265015,79.049545 661.597290,75.759132 674.224792,74.091881 
	C682.990417,72.934532 691.909485,71.805595 700.696594,72.174568 
	C720.525024,73.007156 739.613953,77.094727 757.293579,86.914764 
	C768.663391,93.230072 779.259155,100.511055 787.040833,110.829674 
	C793.783752,119.770790 799.047058,129.825165 805.019043,139.353226 
	C805.839417,140.662231 806.782776,142.557007 807.995544,142.855774 
	C821.682434,146.227661 833.129944,153.726761 843.252808,162.976318 
	C855.995178,174.619446 864.534363,189.318298 867.679321,206.265472 
	C869.141968,214.147446 867.634155,222.657486 866.929382,230.835968 
	C866.509155,235.711517 870.217957,238.088135 872.541443,240.745712 
	C884.005188,253.857468 894.169861,267.908569 902.407227,283.143616 
	C910.034363,297.250031 916.609253,312.366974 918.520264,328.198181 
	C920.276794,342.750854 926.931396,354.626373 933.032349,367.079529 
	C940.331970,381.979340 947.469788,396.975861 955.331604,411.578430 
	C965.157654,429.829407 973.126221,448.834991 979.051025,468.613434 
	C983.377380,483.055817 987.765198,497.718018 989.641785,512.595520 
	C991.978088,531.117432 993.014893,550.049255 987.942017,568.485168 
	C984.382568,581.420959 978.760254,593.378174 968.723511,602.735107 
	C966.321716,604.974121 965.685486,606.997803 966.580322,610.479736 
	C968.026062,616.105042 968.658203,622.024719 968.918579,627.852051 
	C969.510193,641.092407 969.725708,654.351013 969.985291,667.604370 
	C970.322937,684.843750 967.546570,701.762817 962.720642,718.160583 
	C959.314941,729.732178 953.029907,740.187805 945.136047,749.545288 
	C943.836426,751.085876 942.987122,753.636230 943.110718,755.647339 
	C944.055054,771.014343 942.036804,786.088501 937.868225,800.745605 
	C933.331116,816.698792 926.934814,831.947998 916.397827,845.106262 
	C911.849121,850.786377 907.990295,857.137634 902.847229,862.197144 
	C893.613586,871.280518 883.855347,879.805054 871.659607,885.089417 
	C864.202087,888.320801 856.914856,891.560425 847.336487,890.815186 
	C848.353699,888.921631 848.784485,887.039490 849.965271,886.095703 
	C857.985229,879.685974 866.897705,874.204712 874.077576,866.986755 
	C880.857666,860.170776 886.241821,851.840637 891.570312,843.736267 
	C899.211182,832.114746 902.839783,818.724976 906.663269,805.536743 
	C908.069519,800.685974 908.211426,795.468567 908.564819,790.163757 
	C902.084106,801.417114 893.208618,810.026062 880.518494,815.552185 
	C881.991577,811.192932 883.610229,806.876648 884.911621,802.466736 
	C889.665527,786.357483 894.684326,770.312622 898.880188,754.056885 
	C902.058289,741.743958 904.342712,729.184753 906.630432,716.663086 
	C908.119690,708.511597 909.130493,700.253479 909.946106,692.002686 
	C911.155029,679.773315 911.656189,667.468323 913.066956,655.265808 
	C917.057800,620.746399 916.134216,586.099731 915.851868,551.490723 
	C915.724670,535.893494 914.501343,520.255859 912.856140,504.734039 
	C911.146362,488.603363 908.724304,472.519165 905.863770,456.548950 
	C903.656372,444.225159 900.191772,432.130829 897.460999,419.895447 
	C893.395142,401.677979 886.465454,384.490723 878.932617,367.510742 
	C870.960815,349.541107 860.876404,332.902161 847.138489,318.731079 
	C840.409668,311.790161 833.177551,305.335358 826.116333,298.721283 
	C825.451416,298.098450 824.377319,297.912506 822.321411,297.008484 
	C826.063232,306.391754 830.617493,314.492950 833.081604,323.264099 
	C832.614929,323.428162 832.148254,323.592194 831.681519,323.756226 
	C829.490234,321.062103 827.299011,318.367981 824.652466,315.226318 
	C823.861816,314.647156 823.526489,314.515472 823.191162,314.383789 
	C823.434143,314.947418 823.677124,315.511078 823.920044,316.074768 
	C826.287964,321.126495 828.689514,326.162811 831.017517,331.232941 
	C837.618164,345.608765 844.527283,359.856445 850.640503,374.437378 
	C854.144409,382.794556 856.371704,391.690643 859.099426,400.367493 
	C860.060974,403.425842 862.075500,404.500458 865.085815,403.990967 
	C868.585388,403.398560 871.793884,402.377655 871.981506,398.005005 
	C872.079224,395.727417 871.998718,393.442200 871.998718,391.160431 
	C872.460266,390.893066 872.921753,390.625732 873.383301,390.358398 
	C874.905457,392.142181 877.105164,393.684662 877.840393,395.748688 
	C882.778076,409.611267 887.904968,423.440674 891.969543,437.568756 
	C895.076233,448.367188 896.847717,459.562958 898.959595,470.630371 
	C900.809692,480.326141 902.403503,490.074341 903.913818,499.829834 
	C904.539368,503.870239 904.747131,507.984711 904.977539,512.074890 
	C905.385803,519.321777 905.737000,526.573425 905.986572,533.827393 
	C906.691772,554.327515 907.787354,574.828308 907.855164,595.331787 
	C907.908630,611.498352 906.756897,627.673645 905.964600,643.836487 
	C905.481995,653.681641 904.945312,663.539795 903.917175,673.338013 
	C902.986511,682.207642 901.267639,690.991943 900.064697,699.836731 
	C899.229126,705.979309 898.947205,712.204590 897.946045,718.315674 
	C895.751160,731.712585 893.542480,745.119446 890.793579,758.409302 
	C888.618164,768.926025 886.179993,779.452942 882.875244,789.656799 
	C877.670715,805.726501 871.951538,821.649658 865.835449,837.396118 
	C862.491516,846.005310 858.566956,854.554321 853.654663,862.342285 
	C848.799866,870.039001 842.453796,876.811401 836.610962,883.864136 
	C830.609192,891.108704 823.767151,897.570557 815.408875,901.924927 
	C806.661804,906.481873 797.683228,911.144348 787.231323,908.909302 
	C785.147339,908.463623 783.311157,906.859558 781.673340,905.146545 
	C792.414001,903.834961 799.153320,896.665527 806.601868,890.855957 
	C818.795288,881.345764 828.396240,869.345032 835.914429,856.121216 
	C840.982788,847.206421 844.094849,836.974426 846.834045,826.989319 
	C850.787903,812.576355 853.828308,797.897522 856.814026,783.241577 
	C858.112000,776.870422 858.479248,770.287170 858.964722,763.777527 
	C860.076599,748.871704 861.015503,733.952759 861.994507,719.037231 
	C862.371826,713.288635 862.786865,707.538513 862.975586,701.782288 
	C863.388000,689.201172 863.988892,676.614258 863.934021,664.032288 
	C863.813721,636.450195 863.356201,608.869507 862.951965,581.289429 
	C862.922913,579.306824 862.208557,577.334351 861.798767,575.286560 
	C853.943970,604.223083 846.150818,632.932495 838.400269,661.484863 
	C845.632751,659.079895 852.976685,656.637878 860.190247,654.239197 
	C860.190247,663.269348 860.194092,672.412048 860.182068,681.554688 
	C860.181213,682.207764 860.028442,682.859497 860.005981,683.513916 
	C859.664673,693.431152 859.690308,703.376953 858.906677,713.258728 
	C857.992126,724.791382 856.347351,736.265442 855.069153,747.770386 
	C854.329651,754.426758 853.827576,761.112061 852.969055,767.752075 
	C851.762085,777.087097 850.830627,786.500854 848.862915,795.684143 
	C846.005371,809.020447 841.875793,822.088379 839.139221,835.445068 
	C836.809570,846.816101 829.690247,853.167053 819.814453,857.697693 
	C809.073669,862.625122 798.597168,868.142700 787.765442,872.850525 
	C783.587708,874.666321 778.766968,875.061340 774.197388,875.866516 
	C773.306946,876.023376 771.366821,875.042786 771.385254,874.657104 
	C771.446655,873.367859 771.834717,871.762634 772.710205,870.900879 
	C776.610168,867.062561 780.844177,863.562988 784.732910,859.714111 
	C792.399536,852.126099 798.161926,843.160461 802.865173,833.513306 
	C805.380127,828.354614 807.629395,823.066467 810.354919,817.324341 
	C811.017029,815.919556 811.322693,815.027100 811.628357,814.134705 
	C811.395264,814.026367 811.162231,813.918091 810.929138,813.809753 
	C810.421692,814.618225 809.914307,815.426697 809.406921,816.235168 
	C801.485901,823.439392 794.093384,831.366455 785.499573,837.650635 
	C776.358032,844.335205 766.292847,849.878357 756.201904,855.089172 
	C751.453369,857.541382 750.394531,860.549500 750.994873,865.130066 
	C751.693115,870.456970 752.982361,875.806213 752.862488,881.119751 
	C752.616821,892.011230 758.785461,898.497925 766.935181,903.998474 
	C783.807129,915.385986 802.283081,922.752930 822.375305,925.967285 
	C827.995972,926.866516 833.674255,927.692749 839.347595,927.871094 
	C842.991089,927.985596 846.659851,926.504517 850.341736,926.359070 
	C857.090820,926.092407 863.858826,926.229309 870.617310,926.318359 
	C872.726990,926.346130 874.830139,926.950684 876.938782,926.966980 
	C885.571838,927.033630 893.932434,927.660156 902.306152,930.706909 
	C908.097839,932.814209 914.819092,932.575867 921.150635,932.948608 
	C936.328979,933.842224 950.670471,938.188232 964.368103,944.244385 
	C978.177307,950.349854 990.085388,959.422791 1000.029724,970.979187 
	C1012.123596,985.033569 1020.137024,1001.135986 1025.445679,1018.820007 
	C1030.025269,1034.075562 1033.420288,1049.486694 1033.990601,1065.440674 
	C1034.374878,1076.187256 1034.906372,1086.935913 1034.954102,1097.685669 
	C1035.086304,1127.508911 1035.129883,1157.333862 1034.963989,1187.156738 
	C1034.791748,1218.126343 1034.333252,1249.094116 1034.000000,1280.531372 
	C1028.645020,1281.000000 1023.290100,1281.000000 1017.467590,1280.531372 
	C1017.333374,1235.827148 1018.184814,1191.587524 1017.831421,1147.357422 
	C1017.562500,1113.697510 1021.135986,1079.818848 1013.939697,1046.435425 
	C1011.644043,1035.785767 1009.447205,1024.996338 1005.748535,1014.799194 
	C1001.653503,1003.509521 995.984680,992.759033 987.912598,983.582947 
	C979.629395,974.166931 970.532104,965.579529 958.629700,961.074097 
	C947.731506,956.948853 936.603516,953.290344 925.340332,950.323853 
	C918.888428,948.624512 911.965332,948.714539 905.224548,947.995789 
	C904.787964,956.322388 904.576050,964.070435 903.935120,971.782715 
	C902.756714,985.962585 900.323181,1000.114136 900.218628,1014.290771 
	C900.028625,1040.036743 898.181946,1065.897217 902.953918,1091.503540 
	C904.305298,1098.755249 905.094543,1106.111694 906.141602,1113.420166 
	C907.292786,1108.602173 907.691956,1103.872437 907.988647,1099.136230 
	C908.369507,1093.056763 908.411560,1086.940918 909.143616,1080.906860 
	C909.394592,1078.838745 911.284241,1076.969360 912.425232,1075.009277 
	C913.615173,1076.884888 914.821350,1078.750732 915.974854,1080.648438 
	C916.123169,1080.892456 915.985229,1081.303223 916.002014,1081.635620 
	C916.999817,1101.372925 917.982361,1121.111206 919.028015,1140.845947 
	C919.129761,1142.765747 919.444702,1144.714722 919.963501,1146.565308 
	C923.247986,1158.280151 926.492859,1170.008423 929.990845,1181.660278 
	C934.460632,1196.549072 937.170959,1211.693237 936.961365,1227.262695 
	C936.843445,1236.014648 936.197876,1244.759033 936.037964,1253.511353 
	C935.870605,1262.671387 936.000244,1271.836914 936.000000,1281.000000 
	C920.979126,1281.000000 905.958191,1281.000000 890.468750,1280.596436 
	C892.800903,1270.165161 896.110779,1260.245605 898.267517,1250.081299 
	C900.716492,1238.538940 903.262390,1226.824341 903.747253,1215.101196 
	C904.566284,1195.295532 905.053223,1175.382446 899.116333,1155.942017 
	C895.885193,1145.361328 893.433655,1134.495850 891.359863,1123.619629 
	C888.237732,1107.245361 884.916321,1090.832886 883.265808,1074.278442 
	C881.949036,1061.071289 882.869751,1047.626709 883.036926,1034.290405 
	C883.198853,1021.369202 883.609436,1008.450012 884.029846,995.533813 
	C884.184631,990.777039 884.613586,986.025452 885.032959,981.281738 
	C885.983887,970.524292 886.936707,959.765991 888.038330,949.023315 
	C888.418457,945.316223 886.780273,943.968872 883.352600,943.992126 
	C878.519531,944.024902 873.679504,944.152527 868.855225,943.944092 
	C865.868225,943.815063 865.276733,945.610718 865.017700,947.821228 
	C863.651611,959.479553 862.494873,971.164612 860.964050,982.800781 
	C858.782959,999.380371 856.415405,1015.936523 853.988220,1032.482300 
	C851.528931,1049.246826 847.742371,1065.577026 839.179932,1080.531250 
	C833.628540,1090.226807 826.226685,1098.104248 817.639160,1105.033325 
	C803.773682,1116.221191 787.745789,1123.136353 770.818237,1127.920776 
	C760.464844,1130.847168 749.704651,1132.314453 739.305420,1135.102051 
	C722.395752,1139.635254 705.016663,1139.924561 687.799927,1140.753418 
	C671.102234,1141.557373 654.305725,1140.380127 637.555359,1139.963379 
	C633.797913,1139.869873 629.995911,1139.619019 626.310425,1138.928467 
	C612.834045,1136.402710 599.340698,1133.919189 585.961304,1130.937012 
	C567.360046,1126.791016 549.699890,1119.864136 533.937927,1109.183472 
	C519.756470,1099.573730 508.019226,1087.245483 502.089905,1070.707397 
	C498.478241,1060.633911 495.521637,1050.264771 493.130066,1039.831543 
	C490.747253,1029.436401 489.378967,1018.804688 487.674377,1008.259155 
	C486.043671,998.170898 484.375244,988.083252 483.047455,977.952820 
	C481.573669,966.708740 480.466797,955.416565 479.183868,944.000549 
	C472.155243,944.000549 465.836029,944.105896 459.522705,943.959045 
	C456.010925,943.877380 455.738983,945.978638 456.023682,948.513855 
	C457.315247,960.015015 458.966095,971.484558 459.924988,983.012329 
	C461.219727,998.577820 462.391357,1014.174194 462.868347,1029.780151 
	C463.211578,1041.010986 462.598785,1052.294800 461.924438,1063.525879 
	C461.277618,1074.298462 460.662140,1085.145752 458.852509,1095.759033 
	C455.927948,1112.911499 452.591064,1130.036499 448.402679,1146.918701 
	C443.866974,1165.201050 440.042755,1183.465942 441.044159,1202.403320 
	C441.441437,1209.915649 442.064270,1217.437866 443.062195,1224.891602 
	C444.479218,1235.475586 445.953522,1246.080322 448.129425,1256.525146 
	C449.853577,1264.801270 452.669098,1272.850220 455.000000,1281.000000 
	C440.312439,1281.000000 425.624878,1281.000000 410.468658,1280.532471 
	C409.666656,1261.413574 409.097351,1242.762085 409.115784,1224.111084 
	C409.123169,1216.621338 409.662903,1208.962646 411.297943,1201.681152 
	C414.247253,1188.546509 418.225769,1175.643799 421.726349,1162.631348 
	C422.893097,1158.294312 424.508362,1153.967285 424.874695,1149.548950 
	C425.623932,1140.513428 425.613312,1131.416870 426.011261,1122.349609 
	C426.633331,1108.176392 427.228973,1093.999634 428.145752,1079.844482 
	C428.252167,1078.202026 430.325531,1076.687012 431.486938,1075.112915 
	C432.657928,1076.793213 434.669189,1078.382568 434.862213,1080.168579 
	C436.027435,1090.950317 436.776642,1101.777100 437.664978,1112.588745 
	C450.108612,1057.696167 443.292999,1002.905212 439.399445,947.505188 
	C432.604950,948.442322 426.974731,949.267212 421.331238,949.988220 
	C403.502319,952.266113 387.189484,958.191711 372.449860,968.773682 
	C360.763489,977.163757 351.917114,987.840515 344.565216,999.944519 
	C337.552246,1011.490601 333.808167,1024.442017 331.307434,1037.411621 
	C328.658844,1051.147949 327.330414,1065.323853 327.202240,1079.324097 
	C326.902527,1112.057861 327.803528,1144.800781 327.962494,1177.541016 
	C328.129944,1212.026611 328.000000,1246.513672 328.000000,1281.000000 
	C322.311951,1281.000000 316.623932,1281.000000 310.467957,1281.000000 
	C309.666687,1212.447510 309.164581,1143.895142 309.183929,1075.342651 
	C309.186798,1065.178467 311.935394,1055.042114 312.906097,1044.844482 
	C314.201752,1031.233521 318.243530,1018.383545 323.041077,1005.742249 
	C327.843201,993.088928 334.954773,981.782349 343.878082,971.569824 
	C354.048126,959.930359 366.064606,950.630554 379.994263,944.164429 
	C387.629120,940.620422 395.840607,937.865967 404.083801,936.192749 
	C415.987732,933.776550 428.525848,933.963318 440.117645,930.664795 
	C454.172302,926.665344 468.527679,927.462463 482.644318,925.328369 
	C487.408752,924.608093 492.538696,926.650635 497.531586,926.993896 
	C501.986511,927.300171 506.697296,927.865173 510.920868,926.813171 
	C523.822144,923.599609 536.797852,920.357788 549.257019,915.795471 
	C560.170898,911.798889 570.773438,906.606445 580.856140,900.800659 
	C588.224121,896.557983 593.619873,890.267517 593.171631,880.348083 
	C592.826965,872.719543 594.032715,865.020996 594.569641,857.048645 
	C561.967896,844.676453 535.097961,824.620544 514.657715,795.233398 
	C513.861877,794.647156 513.526489,794.515442 513.191162,794.383789 
	C513.434143,794.947449 513.677124,795.511169 513.920105,796.074829 
M501.888916,324.678162 
	C501.153839,325.702454 500.418762,326.726715 499.683685,327.751007 
	C500.096863,328.028839 500.510010,328.306671 500.923157,328.584503 
	C501.642853,327.413849 502.362518,326.243195 503.642944,324.879303 
	C503.683380,324.339630 503.723816,323.799988 503.764313,323.260345 
	C503.324738,323.575256 502.885162,323.890167 501.888916,324.678162 
M691.107971,134.343796 
	C699.782654,129.632538 706.395325,123.154556 708.953064,113.281761 
	C710.191895,108.500229 713.554565,106.685898 718.057007,107.070694 
	C722.432007,107.444603 726.207275,109.764984 727.853333,113.758667 
	C730.347290,119.809624 732.022278,126.198143 734.157349,132.789261 
	C734.458191,131.652313 734.907715,130.640671 734.972046,129.605118 
	C735.660217,118.524231 732.398010,108.346657 726.466675,99.296974 
	C723.769104,95.181206 719.555481,91.051384 715.105225,89.360580 
	C710.126953,87.469139 704.104248,88.269691 698.530762,88.013496 
	C686.999878,87.483459 678.015137,92.969955 670.131653,100.578255 
	C668.714294,101.946152 668.476685,104.536491 667.263184,107.679207 
	C669.191650,106.832283 669.739868,106.753181 670.034973,106.437454 
	C674.008728,102.186676 679.465759,100.567574 684.331482,102.433655 
	C688.841125,104.163177 690.282715,109.282806 690.060181,114.476540 
	C689.782837,120.950340 689.945251,127.442986 689.356934,134.120728 
	C689.316467,134.660355 689.276001,135.199997 689.235535,135.739624 
	C689.675110,135.424789 690.114624,135.109955 691.107971,134.343796 
M622.127991,223.300095 
	C629.259460,211.709549 638.379028,201.829178 649.110840,193.606079 
	C653.331421,190.372162 658.533386,188.193939 663.594788,186.398590 
	C665.489624,185.726471 668.255249,187.509293 670.623840,188.172821 
	C669.894592,190.137436 669.637268,192.510391 668.352966,193.994614 
	C663.294250,199.840454 657.912781,205.406937 653.083923,210.610703 
	C660.040405,211.438065 666.718445,211.403412 672.867310,213.190018 
	C679.391724,215.085709 683.945496,220.072723 685.881165,228.688889 
	C692.151855,221.166794 698.091431,215.023193 702.822266,208.058578 
	C706.654419,202.417068 708.889526,195.710388 712.170532,189.659180 
	C712.870911,188.367401 715.267639,186.886520 716.470581,187.180359 
	C720.351074,188.128204 724.039185,189.863525 727.832520,191.307114 
	C729.447632,189.698044 727.162415,183.854568 734.020813,186.315033 
	C748.093567,191.363647 755.300964,209.111969 754.132385,221.307861 
	C753.376953,229.192200 751.566467,236.975433 750.048828,245.856827 
	C754.543518,241.284653 758.659180,236.746918 763.158813,232.628693 
	C766.970093,229.140427 769.179688,223.220810 776.016785,223.825867 
	C776.904846,223.904449 778.824890,221.655853 778.845947,220.460190 
	C778.911072,216.761902 778.289551,213.051514 777.848938,208.451630 
	C780.296265,209.228363 782.689880,209.242432 783.706970,210.432709 
	C789.970825,217.763031 794.401550,226.117508 794.939453,235.923477 
	C795.631470,248.539154 794.933411,261.047852 789.356934,273.120758 
	C789.316528,273.660400 789.276062,274.200073 789.235657,274.739685 
	C789.675171,274.424774 790.114746,274.109894 791.092529,273.346619 
	C801.625977,266.093018 808.286804,256.522186 807.924561,243.316177 
	C807.647400,233.212646 804.067932,223.782471 799.966919,214.728210 
	C798.452271,211.384216 799.224121,209.935226 801.972595,208.154907 
	C789.296509,199.448700 775.576538,193.887009 761.149048,190.028305 
	C750.757996,187.249146 740.231018,184.982147 729.798462,182.352615 
	C714.615356,178.525696 699.400818,174.901550 683.567871,176.053268 
	C679.227234,176.369003 674.955139,177.589905 670.614563,177.952255 
	C656.214478,179.154343 644.720764,186.241013 635.382385,196.492096 
	C628.571594,203.968414 623.326721,212.797516 620.289917,223.187134 
	C620.246826,224.021286 620.203735,224.855453 620.105103,226.765106 
	C620.931396,225.096756 621.260559,224.432144 622.127991,223.300095 
M693.594299,788.002075 
	C694.245544,787.932251 694.970825,788.025696 695.537170,787.768677 
	C709.786621,781.304016 724.077454,774.926331 738.241455,768.278625 
	C760.235107,757.956238 779.399109,743.472351 796.095886,726.072754 
	C807.026184,714.682312 815.726624,701.192993 820.855225,686.142151 
	C828.131042,664.789978 834.629761,643.157715 840.901123,621.483215 
	C846.247437,603.006226 850.829224,584.307251 855.683838,565.689392 
	C856.446533,562.764587 856.462402,560.541199 852.731506,558.779907 
	C840.875977,553.183044 829.143677,547.268982 817.687561,540.895447 
	C800.030579,531.072205 782.668457,520.719910 765.100647,510.733887 
	C763.233276,509.672394 760.764832,508.916229 758.683533,509.120605 
	C751.760498,509.800354 744.907715,511.425171 737.983887,511.751038 
	C735.286499,511.877991 732.471924,509.513123 729.710754,508.283264 
	C730.682739,506.149048 731.130127,503.396545 732.748169,502.023926 
	C735.247009,499.904053 738.546631,498.728119 741.389282,497.214355 
	C735.915527,493.299561 730.682312,488.399261 724.503174,485.550903 
	C720.486938,483.699554 717.687012,476.857758 711.455200,480.935669 
	C711.164978,481.125610 710.275085,480.570496 709.760498,480.221008 
	C696.500488,471.215607 684.517700,460.796021 675.024597,447.797729 
	C668.458008,438.806580 661.807373,429.822388 656.017212,420.333008 
	C649.528748,409.699249 643.547791,398.702423 638.129333,387.485199 
	C633.335083,377.560059 629.597412,367.123108 625.436768,356.894409 
	C624.438171,354.439423 623.612183,351.914246 622.706848,349.421326 
	C622.176514,353.090149 622.664001,356.472565 622.984619,359.870697 
	C623.707214,367.529724 623.433228,375.416138 625.210999,382.814484 
	C628.907166,398.196075 633.015320,413.549194 638.203430,428.479889 
	C642.483032,440.795837 648.375366,452.573242 653.890747,464.432220 
	C660.422913,478.477600 669.725220,490.805817 681.029236,501.130829 
	C690.330078,509.626190 701.276794,516.313599 711.433960,523.882935 
	C713.324646,525.291931 714.929871,527.083862 716.666870,528.699097 
	C716.371155,529.192871 716.075439,529.686584 715.779785,530.180359 
	C713.419800,529.878601 710.989380,529.841003 708.711121,529.233154 
	C690.961487,524.497559 676.326050,514.355957 662.868225,502.325256 
	C651.452393,492.120056 643.133362,479.416870 634.993835,466.634979 
	C625.058594,451.033112 616.936523,434.549500 611.384583,416.846222 
	C607.099976,403.184448 602.334900,389.668488 600.936340,375.264404 
	C600.197754,367.658264 598.635925,360.122192 598.105530,352.508545 
	C597.614014,345.452911 598.000732,338.336121 598.000732,330.499634 
	C595.603699,331.545715 593.947144,332.329529 592.246216,333.000793 
	C582.377808,336.895416 573.608704,342.523773 565.809204,349.690155 
	C554.613037,359.977417 546.268860,372.411926 540.116699,386.124847 
	C532.987610,402.015228 525.977661,418.049103 520.412170,434.526062 
	C514.674255,451.513580 509.730194,468.911560 506.279114,486.491241 
	C502.436554,506.065247 500.765991,526.060547 497.924622,545.840088 
	C497.290405,550.255005 495.586334,554.506226 494.625214,558.887817 
	C494.032928,561.588013 493.121643,564.578796 493.719086,567.117859 
	C496.547119,579.137024 499.920105,591.026672 502.957428,602.998291 
	C506.823029,618.234436 510.425354,633.538147 514.377930,648.751282 
	C518.033142,662.819885 521.638306,677.015991 528.567688,689.867249 
	C534.069641,700.071106 539.847595,710.405396 547.228821,719.239868 
	C554.922729,728.448608 564.310730,736.386169 573.651062,744.033020 
	C582.283936,751.100708 591.381287,757.855530 601.086670,763.299377 
	C615.766907,771.533630 630.994568,778.851624 646.282715,785.925476 
	C661.334412,792.889954 676.865784,796.413086 693.594299,788.002075 
M499.997223,970.716736 
	C501.000824,979.289490 501.589874,987.935852 503.095154,996.419617 
	C506.138123,1013.569336 509.307068,1030.715576 513.178223,1047.691284 
	C514.978088,1055.583862 517.699036,1063.523804 521.500671,1070.642334 
	C527.215088,1081.342407 536.037964,1089.561890 546.367554,1096.034668 
	C562.620178,1106.219116 580.484009,1111.885010 599.084290,1116.207520 
	C622.005005,1121.534058 645.173706,1123.558350 668.550049,1123.912476 
	C679.959717,1124.085327 691.385437,1123.390015 702.799744,1122.973389 
	C707.722778,1122.793701 712.715088,1122.769287 717.537109,1121.902222 
	C731.028809,1119.476318 744.529602,1116.996826 757.874146,1113.884155 
	C772.443848,1110.485596 786.311157,1105.066040 799.027161,1096.997803 
	C815.269653,1086.692017 826.615295,1072.723389 831.007874,1053.708984 
	C833.506348,1042.893921 835.826355,1032.033203 837.981567,1021.144531 
	C839.834412,1011.782898 841.600525,1002.389160 842.931335,992.942871 
	C844.544678,981.491577 845.690491,969.973511 846.975708,958.477356 
	C847.460876,954.138000 847.770508,949.778931 848.153564,945.502808 
	C842.897583,944.964600 838.200928,944.296753 833.481628,944.035339 
	C819.195007,943.244141 805.523071,940.057800 792.052979,935.159485 
	C777.923340,930.021362 764.449036,923.651733 752.551697,914.630859 
	C744.676147,908.659546 737.685059,901.383362 736.902100,890.282898 
	C736.355286,882.529785 734.554871,874.847717 734.284363,867.100098 
	C734.158142,863.485962 733.725403,864.357422 731.070251,864.823792 
	C721.699524,866.469604 712.503906,868.454773 702.628235,867.305786 
	C692.101746,866.081055 681.835754,864.479736 671.869995,860.965393 
	C655.870239,855.323059 641.141113,847.330261 627.573242,837.136902 
	C623.335938,833.953430 618.831543,831.125427 614.395386,828.097839 
	C613.231262,844.858337 612.161987,860.938354 610.965027,877.008850 
	C610.663330,881.059387 610.123657,885.110413 609.400452,889.108215 
	C606.637085,904.383179 595.673462,912.995605 583.010010,919.237305 
	C570.324341,925.489929 557.028748,930.591675 543.756287,935.543396 
	C529.596436,940.826172 514.954041,944.289429 499.656250,944.029480 
	C498.598328,944.011475 497.533295,944.411865 496.492615,944.613647 
	C497.032715,948.616394 497.508179,952.206970 498.003601,955.794739 
	C498.647919,960.460938 499.308044,965.124939 499.997223,970.716736 
M459.000610,521.876343 
	C459.054962,522.405579 459.109344,522.934814 459.163696,523.464050 
	C461.087982,517.573608 462.226349,511.609558 463.711731,505.733215 
	C468.075684,488.468781 472.290344,471.157501 477.160248,454.034302 
	C479.238708,446.726257 482.753082,439.820282 485.746826,432.787720 
	C486.077179,432.011719 487.545990,430.970062 488.016754,431.168213 
	C488.863983,431.524841 489.628418,432.639587 489.936829,433.595825 
	C490.547577,435.489563 490.824249,437.491089 491.138763,438.975067 
	C495.539276,427.082336 499.639954,414.954712 504.506165,403.142517 
	C509.371033,391.333588 514.626770,379.650055 520.401245,368.261444 
	C526.258606,356.709351 532.367065,345.196350 539.459961,334.384186 
	C546.369324,323.851807 554.664062,314.228241 562.954956,303.417511 
	C556.052185,304.170258 549.540955,303.586029 544.160522,305.777740 
	C536.549500,308.878082 530.475098,314.910126 525.744751,321.780945 
	C518.272949,332.633606 510.735962,343.473511 503.940765,354.749207 
	C498.772003,363.326019 493.941040,372.272308 490.331543,381.585846 
	C484.158844,397.513000 478.754639,413.760132 473.618469,430.059052 
	C470.203674,440.895386 467.773529,452.044678 464.978546,463.073120 
	C460.160553,482.083923 458.228912,501.401093 459.000610,521.876343 
M470.932068,554.413330 
	C461.243103,553.131836 451.813110,558.830261 447.923798,567.675781 
	C444.426849,575.628906 443.435944,583.529358 444.854248,592.197632 
	C446.962128,605.080017 451.001831,616.979492 457.917023,628.122253 
	C467.028381,642.803772 480.880768,651.109070 495.969055,657.917725 
	C499.948059,659.713196 504.256409,660.778809 509.452057,662.529480 
	C505.763641,649.458618 502.307129,637.498474 499.022827,625.491211 
	C495.599701,612.976501 492.370544,600.408875 488.955109,587.891968 
	C488.708618,586.988647 487.784363,585.958191 486.918671,585.589905 
	C483.152954,583.987915 479.192902,582.821655 475.493622,581.090576 
	C471.733093,579.330688 468.669067,579.789307 465.781281,582.697876 
	C462.548706,585.953796 459.213440,589.035889 458.849091,594.122864 
	C458.776672,595.133545 457.147400,596.032654 456.236053,596.983215 
	C455.495636,596.231384 454.139252,595.500061 454.113403,594.724365 
	C453.925537,589.090759 453.166077,583.291870 454.180817,577.841980 
	C456.131226,567.366699 469.014465,563.302246 477.432037,569.917908 
	C480.961975,572.692200 484.695862,575.207031 488.337067,577.839783 
	C487.935120,578.394836 487.533203,578.949829 487.131256,579.504822 
	C485.909485,574.317383 484.849243,569.085083 483.422424,563.954651 
	C481.855103,558.319031 477.494995,555.166321 470.932068,554.413330 
M742.037231,327.401642 
	C749.358459,344.776550 756.646790,362.165466 764.019226,379.518616 
	C766.527771,385.423340 769.248413,391.237976 772.002808,397.385345 
	C774.313721,390.707672 775.546753,384.625122 778.425964,379.460236 
	C782.053406,372.953033 788.654419,374.416565 793.778381,375.634277 
	C792.871826,370.474487 791.562134,365.178589 791.117188,359.811066 
	C790.755432,355.447052 795.233887,352.863251 799.071899,355.088837 
	C802.177673,356.889862 804.879578,359.387299 807.879944,361.666443 
	C804.773682,343.845154 759.840149,289.699219 748.960632,290.623169 
	C752.585510,298.786530 758.322998,306.237305 757.915955,317.197510 
	C744.187256,304.928040 731.410645,293.509460 718.634094,282.090912 
	C718.205383,282.516846 717.776733,282.942810 717.348022,283.368744 
	C725.554077,297.789429 733.760132,312.210114 742.037231,327.401642 
M949.000000,524.513062 
	C954.330261,546.824829 959.660522,569.136536 964.998047,591.478516 
	C966.884705,587.412903 969.509033,583.152893 970.890015,578.522095 
	C975.167908,564.177551 977.752563,549.768616 976.278503,534.444092 
	C974.687256,517.901306 971.725586,501.728271 967.247437,485.859741 
	C963.390198,472.191437 958.646851,458.741913 953.659668,445.433868 
	C949.829468,435.213135 945.010254,425.363037 940.630859,415.348114 
	C940.000061,416.267853 939.910645,417.044037 940.013428,417.793854 
	C941.796570,430.804108 944.255005,443.763184 945.216431,456.832764 
	C946.124268,469.173798 945.571167,481.631409 945.432129,494.035187 
	C945.385376,498.212799 943.823669,502.499908 944.404358,506.527954 
	C945.241943,512.338440 947.402039,517.958191 949.000000,524.513062 
M515.479431,247.013382 
	C519.341248,242.238510 523.203003,237.463623 527.064819,232.688751 
	C527.782532,232.999847 528.500244,233.310928 529.217957,233.622025 
	C527.768677,238.560394 526.319458,243.498764 524.870178,248.437134 
	C526.777588,246.038239 527.677124,242.951141 529.680969,240.995804 
	C535.815613,235.009659 542.314819,229.388184 548.846130,223.829163 
	C549.634888,223.157822 551.488647,223.737747 553.566101,223.737747 
	C544.581970,236.257965 538.001221,248.645447 538.061523,262.514008 
	C540.909058,263.519348 543.435974,264.127380 545.682434,265.281372 
	C548.122253,266.534637 550.301147,268.295715 553.016785,270.119415 
	C550.340759,254.429276 552.922852,240.203964 560.419617,227.298218 
	C568.077454,214.115311 579.851990,205.791504 595.299438,202.242432 
	C586.399841,216.248672 581.887695,230.690781 587.176697,246.836014 
	C587.256409,233.000351 589.789795,219.761124 596.800720,207.656158 
	C603.949951,195.312332 616.380005,189.963440 628.539185,184.083405 
	C617.860107,185.546234 607.355530,187.309021 596.959473,189.570602 
	C583.779846,192.437698 571.276794,197.191330 559.169067,203.238602 
	C544.517517,210.556427 531.017395,219.425949 519.534729,231.073029 
	C509.670898,241.078171 501.364532,252.270126 495.929138,265.424500 
	C489.169495,281.783722 491.090302,297.183258 500.011566,312.095612 
	C507.489197,309.095825 508.140289,307.793854 505.982086,301.051727 
	C505.302032,298.927246 504.236847,296.823517 504.067841,294.654175 
	C502.757599,277.836273 506.180939,262.065338 515.479431,247.013382 
M673.507568,311.998383 
	C695.072266,342.554962 718.082153,372.126434 736.328918,404.944641 
	C734.879700,398.993439 732.563293,393.391174 731.410889,387.558868 
	C730.531128,383.106140 730.321655,378.190613 731.260071,373.789276 
	C732.548340,367.747528 737.924622,368.137146 742.833923,368.909210 
	C740.338562,351.595886 701.186401,300.875061 686.655701,295.471497 
	C687.225891,303.788849 687.808960,312.293213 688.392029,320.797577 
	C687.768677,321.057770 687.145325,321.317932 686.521973,321.578094 
	C677.252380,309.577698 667.982788,297.577332 658.713257,285.576935 
	C658.162781,285.982056 657.612366,286.387207 657.061951,286.792328 
	C662.387085,294.999176 667.712219,303.206024 673.507568,311.998383 
M716.591370,418.071991 
	C716.051392,417.277313 715.437805,416.522491 714.982727,415.681854 
	C709.818787,406.142700 704.865540,396.483643 699.477844,387.073151 
	C694.549194,378.464386 689.231750,370.074066 683.953735,361.670319 
	C675.072510,347.529144 664.569275,334.701263 652.473022,323.009338 
	C648.489746,335.645447 668.215210,404.658386 680.001465,419.551086 
	C680.001465,417.894470 679.728027,416.339539 680.046021,414.916718 
	C681.999451,406.176086 686.934082,399.739716 696.607239,407.157532 
	C700.480469,410.127686 704.188171,413.316162 707.931580,416.452606 
	C711.479797,419.425476 714.976135,422.460266 719.612732,426.422791 
	C718.406006,422.914307 717.690857,420.835175 716.591370,418.071991 
M953.000000,654.504028 
	C952.688110,622.143372 946.822205,590.652161 938.998901,559.995056 
	C938.998901,573.184082 939.124939,586.762146 938.967651,600.336914 
	C938.763855,617.920715 938.484070,635.506470 937.955383,653.082886 
	C937.514038,667.756897 935.873352,682.439575 936.257080,697.079285 
	C936.551758,708.321289 939.171143,719.502380 940.756714,730.710571 
	C941.406860,730.757385 942.057007,730.804260 942.707153,730.851074 
	C944.509766,723.792175 945.910095,716.599487 948.202271,709.703308 
	C952.400513,697.072998 952.652344,684.048462 952.978821,670.998779 
	C953.107971,665.836365 953.000000,660.668091 953.000000,654.504028 
M787.044312,145.458725 
	C778.481873,121.445778 761.552917,105.761192 738.097778,95.794502 
	C738.448425,98.815056 738.691284,101.197609 739.006897,103.570488 
	C739.872131,110.075500 740.775940,116.517540 746.441406,121.059509 
	C747.909668,122.236565 749.058289,123.997467 749.926880,125.707031 
	C755.234253,136.153366 756.553101,147.260071 755.072571,158.780838 
	C754.780579,161.052933 754.439941,163.318771 754.121765,165.587479 
	C756.079407,164.269089 757.520508,162.718185 758.517456,160.920914 
	C760.765625,156.868057 762.825378,152.709015 764.902405,148.563400 
	C766.774780,144.826187 769.152710,145.444092 771.223389,148.089447 
	C773.107422,150.496292 774.472839,153.309097 776.456177,156.586075 
	C776.838989,154.714783 777.106934,153.405350 777.640747,150.796127 
	C779.622131,152.489792 781.454346,153.417755 782.324646,154.907654 
	C786.671326,162.348694 786.919189,170.670822 786.999634,178.989548 
	C787.050476,184.246002 787.146362,184.321518 792.702393,183.471176 
	C794.228699,170.554276 791.888123,158.173782 787.044312,145.458725 
M887.965942,293.621429 
	C872.599060,265.069427 852.661133,240.627335 824.819397,223.197479 
	C854.328247,246.058075 873.319031,275.165680 879.000000,312.524323 
	C879.000000,308.752380 879.000122,304.980438 879.000000,301.208496 
	C878.999756,292.112488 878.999695,292.112488 881.565857,290.377502 
	C884.775879,300.434021 888.449158,309.991241 890.825867,319.860748 
	C894.114075,333.514954 894.308289,347.370544 891.102966,361.222626 
	C889.979980,366.075531 887.664307,370.899719 890.521179,376.225250 
	C892.848022,380.562897 894.213379,385.418945 895.972961,390.057312 
	C896.971313,392.688873 897.905151,395.344879 898.867981,397.989899 
	C909.030884,361.794098 905.893738,327.270416 887.965942,293.621429 
M855.029907,222.034271 
	C855.020081,219.230560 855.635193,216.246048 854.885986,213.656204 
	C852.402710,205.072128 850.807007,195.788986 846.274170,188.357971 
	C841.207886,180.052551 833.708374,173.044693 826.481506,166.316635 
	C822.405823,162.522171 816.747009,160.428101 811.444031,157.361435 
	C814.008057,170.107117 815.181274,181.709869 813.120239,193.474335 
	C812.650146,196.157822 813.196594,197.691788 816.001709,199.103760 
	C823.412048,202.833618 830.695007,206.888306 837.695557,211.337692 
	C843.280884,214.887634 848.365234,219.223495 853.720642,223.144104 
	C853.991028,223.342072 854.722534,222.910141 855.029907,222.034271 
M858.043091,444.350281 
	C859.493896,450.372101 860.944702,456.393951 862.395508,462.415771 
	C862.775757,457.888702 862.913452,453.369568 861.882935,449.134705 
	C857.793396,432.328522 853.231262,415.638000 849.048401,398.853760 
	C844.498718,380.597168 837.577087,363.193207 828.764771,346.708008 
	C822.038330,334.124969 814.492065,321.744324 805.651550,310.588287 
	C795.160583,297.349609 781.722595,286.993378 766.560181,279.164246 
	C763.835510,277.757385 761.135559,276.302734 758.424194,274.870148 
	C808.546204,321.308167 843.666077,376.223846 858.043091,444.350281 
M463.420807,411.059357 
	C473.148956,383.929291 483.423340,357.034698 498.149292,332.059143 
	C480.611053,346.186340 452.643158,415.559753 456.672485,433.482239 
	C456.936005,432.293823 457.107452,431.192535 457.426575,430.135834 
	C459.275299,424.013855 461.158844,417.902374 463.420807,411.059357 
M629.000854,149.943512 
	C629.051453,150.433823 629.102051,150.924133 629.017578,150.105728 
	C633.820129,136.667038 639.014404,122.132034 644.208679,107.597038 
	C640.506531,111.645111 636.801086,115.925232 634.158691,120.783531 
	C629.389709,129.551651 628.541870,139.251038 629.000854,149.943512 
M636.002502,339.360840 
	C633.271667,326.033813 630.540833,312.706757 627.810059,299.379730 
	C627.294006,320.524536 633.284119,340.237579 641.416870,359.474426 
	C639.622559,353.055328 637.828186,346.636230 636.002502,339.360840 
M498.057800,329.558533 
	C498.230469,330.123138 498.403168,330.687714 498.575867,331.252350 
	C499.034729,330.870697 499.493622,330.489075 499.952484,330.107391 
	C499.535156,329.712128 499.117828,329.316864 498.057800,329.558533 
M823.976196,221.666550 
	C823.077637,221.340576 822.179077,221.014587 821.280518,220.688614 
	C821.194946,220.937424 821.109436,221.186249 821.023865,221.435059 
	C821.838867,221.769348 822.653931,222.103638 823.976196,221.666550 
M645.615051,106.622818 
	C646.057190,106.449974 646.499390,106.277130 646.941528,106.104279 
	C646.560486,106.016464 646.179382,105.928642 645.615051,106.622818 
M820.622803,220.384949 
	C820.449951,219.942764 820.277161,219.500595 820.104309,219.058411 
	C820.016418,219.439468 819.928589,219.820541 820.622803,220.384949 
M715.055054,280.704468 
	C715.318176,281.110443 715.581360,281.516418 715.844543,281.922394 
	C715.791565,281.353973 715.738525,280.785583 715.055054,280.704468 
M720.306824,427.777252 
	C720.469299,427.313080 720.642944,426.851776 720.762634,426.376801 
	C720.768982,426.351654 720.317444,426.211212 720.079041,426.124420 
	C719.985840,426.469666 719.892578,426.814911 720.306824,427.777252 
M822.020630,295.700958 
	C821.453369,295.647003 820.886108,295.593048 820.318848,295.539093 
	C820.748718,295.826660 821.178650,296.114227 822.020630,295.700958 
M656.693115,284.222748 
	C656.530701,284.686890 656.356934,285.148224 656.237366,285.623169 
	C656.231018,285.648346 656.682556,285.788788 656.920898,285.875580 
	C657.014160,285.530334 657.107361,285.185089 656.693115,284.222748 
z"/>

<path fill="#ffffff" opacity="1.000000" stroke="none" 
	d="
M748.658142,620.153076 
	C740.911743,609.834900 740.192932,598.270752 741.016357,586.379517 
	C741.125488,584.804138 741.455505,583.244080 741.766663,581.103149 
	C737.875732,583.432312 734.259155,585.876038 730.375366,587.772156 
	C728.998596,588.444336 726.031494,588.428833 725.450867,587.584778 
	C724.476562,586.168640 723.908020,583.146362 724.768250,581.995422 
	C736.365479,566.479980 749.549805,553.455505 770.295044,550.847046 
	C784.099731,549.111267 797.106445,550.727234 809.658142,556.384949 
	C811.095032,557.032654 811.903503,559.074158 813.003784,560.469055 
	C813.662720,561.304382 814.149841,562.455383 815.009033,562.924194 
	C822.421753,566.968933 829.856934,570.978394 837.383667,574.805237 
	C840.348389,576.312683 843.562073,577.330444 847.126099,578.756775 
	C844.986145,586.886169 837.021240,585.865417 831.368774,588.393127 
	C833.119446,595.080444 831.295837,598.693481 825.055786,600.350647 
	C823.914978,600.653687 821.765076,600.396790 821.345947,599.669434 
	C817.716675,593.371033 811.159058,593.071411 805.256226,591.401611 
	C804.044250,602.792480 801.349854,613.350037 793.339966,622.411316 
	C783.514832,633.526001 759.750427,634.646179 750.665833,622.192139 
	C750.180542,621.526794 749.515137,620.992737 748.658142,620.153076 
z"/>
<path fill="#ffffff" opacity="1.000000" stroke="none" 
	d="
M512.533081,586.819824 
	C511.386536,586.442261 510.442719,586.434875 509.921478,585.961853 
	C507.875946,584.105530 505.963623,582.102417 504.001831,580.153809 
	C505.661407,579.096130 507.263672,577.932617 508.990051,576.998352 
	C518.290649,571.965332 527.689270,567.106323 536.857239,561.844360 
	C537.996277,561.190613 537.967468,558.502014 538.593323,556.369629 
	C549.341248,552.170288 560.912781,549.026001 573.067200,550.098816 
	C584.831970,551.137329 596.401855,553.293213 605.493408,561.959167 
	C611.163879,567.364258 616.995911,572.603577 622.563782,578.111084 
	C625.740173,581.253052 626.308777,586.049255 623.723572,587.573486 
	C622.341431,588.388428 619.790283,588.356567 618.303345,587.621460 
	C615.200989,586.087524 612.454956,583.832825 609.000000,581.493347 
	C609.000000,588.768921 609.701172,595.156860 608.873657,601.340332 
	C605.930725,623.331116 588.080566,638.178040 564.848999,627.991638 
	C560.163635,625.937317 556.331665,621.058472 553.114502,616.732178 
	C547.797668,609.582397 545.271729,601.234375 546.035583,592.268066 
	C542.675476,592.919434 539.557922,593.134888 536.754028,594.186584 
	C534.374268,595.079163 530.530762,594.422729 530.341980,598.900513 
	C530.323181,599.346558 526.138000,600.518738 524.654297,599.790222 
	C522.416016,598.691223 520.272095,596.494080 519.186646,594.235657 
	C518.295776,592.381897 519.005066,589.759033 519.005066,586.976135 
	C517.437866,586.976135 515.183899,586.976135 512.533081,586.819824 
z"/>
<path fill="#ffffff" opacity="1.000000" stroke="none" 
	d="
M577.949951,508.000000 
	C557.912598,506.849091 538.585022,508.485291 518.459717,513.811035 
	C519.211182,511.410767 519.208557,509.638092 520.013062,509.120941 
	C529.392029,503.091553 539.396606,498.464661 550.580872,497.031769 
	C559.625977,495.872894 568.733887,494.020447 577.766113,494.262360 
	C587.748230,494.529663 597.712463,496.625214 607.604248,498.377472 
	C610.455200,498.882507 613.339111,500.573547 615.614685,502.442932 
	C616.991272,503.573822 618.315247,506.609497 617.718262,507.864471 
	C616.853821,509.681976 614.213745,511.809265 612.358582,511.783966 
	C606.866882,511.709167 601.391602,510.618805 595.904358,509.972504 
	C590.083191,509.286957 584.255737,508.655243 577.949951,508.000000 
z"/>
<path fill="#ffffff" opacity="1.000000" stroke="none" 
	d="
M615.990173,554.362305 
	C615.987610,558.488525 613.541870,557.168701 611.998047,556.404419 
	C606.291199,553.579285 600.868469,550.119812 595.016602,547.667908 
	C590.636536,545.832703 585.818237,544.538208 581.095764,544.117676 
	C565.554504,542.733826 550.650452,545.192261 536.878906,552.990234 
	C535.930054,553.527527 534.837646,553.811218 533.811951,554.212830 
	C533.402405,553.852356 532.992859,553.491821 532.583252,553.131348 
	C534.008362,551.425537 535.093811,548.984009 536.917664,548.142090 
	C544.557312,544.615417 552.175293,540.588684 560.257324,538.582825 
	C571.416260,535.813354 583.072449,535.576172 594.228699,539.105042 
	C602.823914,541.823730 611.486511,544.990417 615.990173,554.362305 
z"/>
<path fill="#ffffff" opacity="1.000000" stroke="none" 
	d="
M774.964478,536.999756 
	C791.424072,537.210571 805.892273,541.464050 817.966248,552.155884 
	C817.835754,552.685547 817.705261,553.215271 817.574768,553.744934 
	C816.067078,553.497498 814.315979,553.662903 813.088928,552.939514 
	C799.043762,544.658997 783.703064,542.605103 767.888428,544.127625 
	C757.244202,545.152466 747.381897,549.138367 738.378235,555.060242 
	C736.950317,555.999390 735.306519,556.610352 733.762573,557.373047 
	C733.281860,556.973511 732.801147,556.574036 732.320435,556.174500 
	C733.988831,553.545654 735.141968,550.292908 737.424561,548.407898 
	C743.630920,543.282776 750.809692,539.570557 758.771057,538.115295 
	C763.902710,537.177368 769.234375,537.333801 774.964478,536.999756 
z"/>
<path fill="#ffffff" opacity="1.000000" stroke="none" 
	d="
M678.609497,723.249756 
	C679.045288,725.407288 679.828674,728.620361 679.069885,729.039124 
	C676.639160,730.380676 673.541687,731.469482 670.886536,731.144592 
	C668.789124,730.888000 666.964478,728.402283 665.018738,726.906555 
	C666.402649,725.274963 667.587158,722.549438 669.214478,722.252869 
	C672.084290,721.729675 675.224304,722.688049 678.609497,723.249756 
z"/>
<path fill="#ffffff" opacity="1.000000" stroke="none" 
	d="
M547.732910,652.242798 
	C547.975342,649.970642 548.159119,647.767273 549.205750,646.108337 
	C549.615356,645.459106 552.702454,645.452515 553.265442,646.172913 
	C554.312012,647.512085 554.802856,649.617310 554.724609,651.367920 
	C554.683655,652.283936 553.021545,653.701660 551.950134,653.846436 
	C550.721619,654.012390 549.336487,653.019043 547.732910,652.242798 
z"/>
<path fill="#ffffff" opacity="1.000000" stroke="none" 
	d="
M799.776978,652.707397 
	C796.809448,655.322327 794.676392,653.345520 793.414368,651.512451 
	C792.703918,650.480469 793.226257,647.811462 794.162476,646.686340 
	C794.896606,645.803894 797.443420,645.511169 798.613770,646.097168 
	C801.237793,647.411194 801.975342,649.760742 799.776978,652.707397 
z"/>
<path fill="#ffffff" opacity="1.000000" stroke="none" 
	d="
M761.928162,652.776550 
	C761.974243,654.988342 762.301208,656.924255 761.688843,658.493652 
	C761.467224,659.061707 758.160889,659.351135 757.713867,658.727356 
	C756.521484,657.063293 756.117371,654.834290 755.070679,651.910217 
	C758.067993,652.107544 759.952820,652.231628 761.928162,652.776550 
z"/>
<path fill="#ffffff" opacity="1.000000" stroke="none" 
	d="
M590.987915,654.392883 
	C590.998474,656.120972 590.998474,657.417969 590.998474,658.714966 
	C590.603882,659.079407 590.209290,659.443909 589.814697,659.808411 
	C588.033386,658.518127 586.085815,657.385498 584.598450,655.816589 
	C584.265137,655.464905 585.549927,652.591309 586.077881,652.594971 
	C587.714172,652.606384 589.344666,653.444519 590.987915,654.392883 
z"/>
<path fill="#ffffff" opacity="1.000000" stroke="none" 
	d="
M568.223206,653.445923 
	C570.132141,653.064636 572.126160,652.546204 573.449036,653.264221 
	C574.134521,653.636353 574.016785,656.340759 573.509155,657.713074 
	C573.239380,658.442383 570.507935,659.132019 570.351318,658.890503 
	C569.350891,657.347839 568.757385,655.541199 568.223206,653.445923 
z"/>
<path fill="#ffffff" opacity="1.000000" stroke="none" 
	d="
M779.736206,658.569153 
	C777.813354,658.262817 775.895203,657.879639 774.519470,656.803162 
	C773.906067,656.323181 773.926758,654.137817 774.498352,653.295654 
	C775.046204,652.488342 776.801514,651.924622 777.800171,652.170776 
	C778.692993,652.390747 779.556152,653.764709 779.918762,654.808044 
	C780.271912,655.824280 779.973877,657.066833 779.736206,658.569153 
z"/>
<path fill="#ffffff" opacity="1.000000" stroke="none" 
	d="
M842.988770,961.634399 
	C838.069763,964.147217 833.308044,966.743103 828.222290,968.234375 
	C815.784668,971.881531 803.016907,973.548157 790.016907,972.982178 
	C789.256592,972.949097 788.506592,972.677307 787.757935,972.517944 
	C788.561157,967.943054 793.393616,962.906372 799.871277,961.148376 
	C805.752991,959.552124 811.888672,958.695251 817.969849,958.082764 
	C824.847046,957.390137 831.792969,957.406372 838.699646,956.967590 
	C841.908142,956.763733 843.441040,957.898743 842.988770,961.634399 
z"/>
<path fill="#ffffff" opacity="1.000000" stroke="none" 
	d="
M521.414612,957.733093 
	C530.479126,957.909180 539.172424,957.901550 547.082092,962.046814 
	C550.601440,963.891357 553.834106,966.322876 557.028442,968.713196 
	C557.653198,969.180725 557.977112,970.969116 557.580078,971.637573 
	C557.139160,972.379883 555.685364,972.950439 554.721313,972.884338 
	C546.952209,972.351013 539.083557,972.251038 531.462769,970.842224 
	C522.675415,969.217651 514.075134,966.509216 505.490356,963.947205 
	C504.366821,963.611938 503.044922,961.237854 503.226288,960.017761 
	C503.396912,958.869873 505.402466,957.198303 506.655396,957.149170 
	C511.425140,956.961853 516.216980,957.337646 521.414612,957.733093 
z"/>
<path fill="#ffffff" opacity="1.000000" stroke="none" 
	d="
M725.406311,978.000000 
	C721.206299,979.623413 717.460510,981.246887 713.296875,983.051453 
	C712.007874,977.768433 716.697876,975.709656 719.198303,973.141296 
	C723.446106,968.777832 729.279785,967.191101 735.435242,966.968567 
	C740.339905,966.791382 745.239319,966.008484 750.132202,966.082214 
	C756.273254,966.174744 762.405212,966.867188 768.384216,967.289673 
	C769.731812,972.229675 768.963623,974.003296 763.986694,975.273010 
	C751.343140,978.498779 738.610046,977.798523 725.406311,978.000000 
z"/>
<path fill="#ffffff" opacity="1.000000" stroke="none" 
	d="
M598.771729,966.000061 
	C604.306580,966.390442 609.422791,966.424866 614.407288,967.252625 
	C622.370117,968.574951 628.483215,973.027039 633.449646,980.809326 
	C631.960266,980.931213 630.426270,981.555115 629.675476,981.039307 
	C623.789307,976.994690 617.674194,976.895325 610.668518,977.680481 
	C602.956238,978.544800 594.973999,977.163208 587.125122,976.556580 
	C584.440613,976.349060 581.658081,975.874023 579.202454,974.846802 
	C577.846252,974.279541 576.115967,972.178833 576.281311,971.014465 
	C576.489624,969.546936 578.343994,967.333374 579.691772,967.175110 
	C585.853577,966.451660 592.086548,966.334778 598.771729,966.000061 
z"/>
</svg>