<svg version="1.1" xmlns="http://www.w3.org/2000/svg" xmlns:xlink="http://www.w3.org/1999/xlink" width="521.13496" height="498.47998" viewBox="-76.4425,217.59223,521.13496,498.47998"><defs><linearGradient x1="0.55285" y1="182.13567" x2="418.84186" y2="782.96191" gradientUnits="userSpaceOnUse" id="color-1"><stop offset="0" stop-color="#699bff"/><stop offset="1" stop-color="#b52626" stop-opacity="0"/></linearGradient></defs><g fill="url(#color-1)" fill-rule="nonzero" stroke="#000000" stroke-width="0" stroke-linecap="none" stroke-linejoin="none" stroke-miterlimit="10" stroke-dasharray="" stroke-dashoffset="0" font-family="none" font-weight="none" font-size="none" text-anchor="none" style="mix-blend-mode: normal"><g><path d="M-2.59337,485.391c-6.34189,-33.73417 -7.73213,-69.32653 3.78259,-100.63122c10.80841,-29.38447 41.26802,-43.95298 63.56768,-63.51771c16.26218,-14.26772 29.95067,-30.89276 46.017,-45.26506c3.59699,-3.21772 7.31316,-6.32253 11.20408,-9.26268c39.3118,-29.70572 81.58188,-43.87853 130.48645,-47.70533c12.57773,-0.98421 25.44475,-2.25543 38.02076,-0.65854c49.36123,6.26781 51.3663,58.31621 28.14831,92.4442c-8.88867,13.06541 -28.82764,27.31134 -28.86733,44.56669c-0.07929,34.47005 30.57589,60.77033 55.47516,79.89841c14.95949,10.97006 30.6487,21.44749 44.00476,34.40659c28.64201,27.79074 53.17633,69.32347 55.187,109.87626c0.77964,15.72442 0.22669,34.4329 -7.72266,48.59878c-15.13269,26.96673 -44.38567,43.71063 -69.95375,59.27515c-19.9607,12.15104 -44.15857,29.9303 -68.86663,28.58341c-36.74896,-2.00327 -55.354,-37.37056 -66.3136,-67.90259c-7.73919,-21.56038 -8.61918,-45.60738 -32.27086,-54.28974c-1.72435,-0.63299 -3.56973,-1.18432 -5.54763,-1.64707c-4.36483,-1.02118 -8.88569,-1.42015 -13.36817,-1.46389c-43.26004,-0.42209 -78.726,31.2681 -109.34816,57.84132c-19.28107,16.73168 -41.33547,34.96956 -68.13871,36.38228c-57.5329,3.03239 -86.54214,-60.84001 -77.81812,-109.89672c5.53695,-31.13525 26.39427,-53.82953 50.05569,-72.94704c7.06078,-5.55897 14.84612,-11.61655 22.26614,-16.6855z" data-paper-data="{&quot;origin_id&quot;:1751,&quot;id&quot;:1750,&quot;intersections&quot;:[],&quot;vgx&quot;:{&quot;signed&quot;:true,&quot;selected&quot;:true,&quot;unsigned&quot;:false,&quot;contained&quot;:false,&quot;visible&quot;:true,&quot;id&quot;:&quot;tike9cqmf_16655699965153738&quot;,&quot;changeset&quot;:&quot;xv0lp69h8_16655699965153739&quot;,&quot;staticid&quot;:&quot;jsai422rp_16655699965153740&quot;,&quot;name&quot;:&quot;Path&quot;,&quot;altname&quot;:&quot;&quot;,&quot;owner&quot;:null,&quot;layer&quot;:false,&quot;class&quot;:&quot;item&quot;,&quot;type&quot;:&quot;default&quot;,&quot;ui&quot;:false,&quot;actor&quot;:true,&quot;props&quot;:{},&quot;locked&quot;:false,&quot;strokeScaling&quot;:true,&quot;container&quot;:false,&quot;rotation&quot;:{&quot;value&quot;:0}},&quot;v_data&quot;:null}" id="Path 1"/></g></g></svg>